<svg xmlns="http://www.w3.org/2000/svg" width="1476" height="192" viewBox="0 0 1476 192" fill="none">
  <path d="M -0.095 186.001 C -3.408 186.053 -6.052 188.781 -5.999 192.095 C -5.947 195.408 -3.219 198.052 0.095 197.999 L 0 192 L -0.095 186.001 Z M 60.076 184.935 L 58.062 179.283 L 60.076 184.935 Z M 116.644 157.88 L 113.223 152.951 L 116.644 157.88 Z M 175.259 117.533 L 178.675 122.466 L 178.675 122.466 L 175.259 117.533 Z M 377.304 3.843 L 378.033 9.799 L 377.304 3.843 Z M 446.058 1.311 L 443.249 6.613 L 443.249 6.613 L 446.058 1.311 Z M 447.892 9.287 L 443.735 4.961 L 443.735 4.961 L 447.892 9.287 Z M 421.657 38.614 L 416.612 35.366 L 421.657 38.614 Z M 404.685 89.056 L 398.796 87.906 L 404.685 89.056 Z M 410.535 124.45 L 405.151 127.096 L 405.151 127.096 L 410.535 124.45 Z M 430.788 149.681 L 427.422 154.649 L 430.788 149.681 Z M 486.542 180.616 L 486.906 174.627 L 486.542 180.616 Z M 551.569 181.97 L 551.613 187.97 L 551.569 181.97 Z M 621.347 169.483 L 619.387 163.812 L 619.387 163.812 L 621.347 169.483 Z M 692.147 157.738 L 693.255 163.634 L 692.147 157.738 Z M 1474.813 197.881 C 1478.061 198.537 1481.226 196.435 1481.881 193.187 C 1482.537 189.939 1480.435 186.774 1477.187 186.119 L 1476 192 L 1474.813 197.881 Z M 0 192 L 0.095 197.999 C 36.277 197.428 47.3 195.858 62.09 190.587 L 60.076 184.935 L 58.062 179.283 C 45.222 183.859 35.857 185.433 -0.095 186.001 L 0 192 Z M 60.076 184.935 L 62.09 190.587 C 94.026 179.205 114.237 166.855 120.066 162.809 L 116.644 157.88 L 113.223 152.951 C 108.27 156.39 89.006 168.254 58.062 179.283 L 60.076 184.935 Z M 116.644 157.88 L 120.066 162.809 C 126.066 158.644 141.089 148.488 178.675 122.466 L 175.259 117.533 L 171.844 112.6 C 134.59 138.393 119.024 148.925 113.223 152.951 L 116.644 157.88 Z M 175.259 117.533 L 178.675 122.466 C 191.483 113.599 207.143 101.666 223.129 89.601 C 239.19 77.48 255.623 65.193 270.204 55.419 L 266.863 50.435 L 263.522 45.451 C 248.621 55.44 231.932 67.924 215.901 80.023 C 199.796 92.177 184.395 103.911 171.844 112.6 L 175.259 117.533 Z M 266.863 50.435 L 270.204 55.419 C 299.324 35.898 319.63 26.42 335.346 20.323 L 333.176 14.729 L 331.006 9.135 C 314.459 15.555 293.368 25.443 263.522 45.451 L 266.863 50.435 Z M 333.176 14.729 L 335.346 20.323 C 350.964 14.264 361.411 11.833 378.033 9.799 L 377.304 3.843 L 376.576 -2.112 C 359.077 0.029 347.65 2.678 331.006 9.135 L 333.176 14.729 Z M 377.304 3.843 L 378.033 9.799 C 397.781 7.382 413.898 6.307 425.443 6.058 C 431.224 5.933 435.791 6.018 439.057 6.232 C 440.697 6.34 441.925 6.475 442.775 6.614 C 443.835 6.786 443.756 6.881 443.249 6.613 L 446.058 1.311 L 448.866 -3.991 C 447.491 -4.719 445.856 -5.042 444.705 -5.23 C 443.342 -5.452 441.7 -5.62 439.843 -5.742 C 436.116 -5.987 431.178 -6.068 425.184 -5.939 C 413.177 -5.68 396.655 -4.57 376.576 -2.112 L 377.304 3.843 Z M 446.058 1.311 L 443.249 6.613 C 443.535 6.764 443.755 6.896 443.921 7.007 C 444.089 7.119 444.167 7.187 444.185 7.204 C 444.234 7.25 443.865 6.926 443.684 6.197 L 449.506 4.748 L 455.328 3.299 C 454.28 -0.916 450.626 -3.059 448.866 -3.991 L 446.058 1.311 Z M 449.506 4.748 L 443.684 6.197 C 443.587 5.811 443.592 5.513 443.608 5.346 C 443.624 5.178 443.656 5.083 443.666 5.055 C 443.672 5.037 443.677 5.028 443.678 5.025 C 443.68 5.022 443.681 5.021 443.681 5.02 C 443.682 5.019 443.685 5.015 443.691 5.007 C 443.698 4.999 443.712 4.983 443.735 4.961 L 447.892 9.287 L 452.049 13.613 C 454.33 11.422 456.361 7.447 455.328 3.299 L 449.506 4.748 Z M 447.892 9.287 L 443.735 4.961 C 442.603 6.048 441.362 7.042 439.596 8.492 C 437.887 9.896 435.88 11.575 433.596 13.792 C 429.001 18.25 423.507 24.66 416.612 35.366 L 421.657 38.614 L 426.701 41.863 C 433.188 31.791 438.12 26.123 441.952 22.404 C 443.881 20.533 445.588 19.1 447.212 17.766 C 448.778 16.479 450.49 15.111 452.049 13.613 L 447.892 9.287 Z M 421.657 38.614 L 416.612 35.366 C 412.727 41.398 409.173 50.098 406.186 59.267 C 403.166 68.537 400.595 78.697 398.796 87.906 L 404.685 89.056 L 410.573 90.206 C 412.287 81.435 414.739 71.751 417.596 62.984 C 420.485 54.116 423.66 46.585 426.701 41.863 L 421.657 38.614 Z M 404.685 89.056 L 398.796 87.906 C 395.881 102.83 400.075 116.769 405.151 127.096 L 410.535 124.45 L 415.92 121.803 C 411.48 112.77 408.348 101.599 410.573 90.206 L 404.685 89.056 Z M 410.535 124.45 L 405.151 127.096 C 413.282 143.64 423.546 152.022 427.422 154.649 L 430.788 149.681 L 434.153 144.714 C 431.724 143.068 422.994 136.194 415.92 121.803 L 410.535 124.45 Z M 430.788 149.681 L 427.422 154.649 C 428.234 155.199 430.731 157.127 435.006 160.25 C 439.07 163.218 444.365 166.978 450.129 170.708 C 455.876 174.426 462.189 178.178 468.283 181.089 C 474.241 183.935 480.564 186.264 486.178 186.605 L 486.542 180.616 L 486.906 174.627 C 483.663 174.43 479.044 172.931 473.456 170.261 C 468.005 167.657 462.169 164.205 456.647 160.632 C 451.143 157.071 446.047 153.454 442.084 150.559 C 438.331 147.818 435.162 145.398 434.153 144.714 L 430.788 149.681 Z M 486.542 180.616 L 486.178 186.605 C 502.458 187.595 533.169 188.105 551.613 187.97 L 551.569 181.97 L 551.525 175.97 C 533.226 176.105 502.812 175.594 486.906 174.627 L 486.542 180.616 Z M 551.569 181.97 L 551.613 187.97 C 585.433 187.722 607.652 180.563 623.306 175.154 L 621.347 169.483 L 619.387 163.812 C 604.286 169.03 583.476 175.736 551.525 175.97 L 551.569 181.97 Z M 621.347 169.483 L 623.306 175.154 C 636.133 170.722 648.915 168.677 660.868 167.337 C 672.482 166.035 684.15 165.347 693.255 163.634 L 692.147 157.738 L 691.038 151.841 C 682.48 153.45 672.183 153.993 659.531 155.412 C 647.217 156.792 633.431 158.959 619.387 163.812 L 621.347 169.483 Z M 692.147 157.738 L 693.255 163.634 C 708.21 160.822 735.35 156.099 761.355 153.624 L 760.786 147.651 L 760.218 141.678 C 733.672 144.204 706.114 149.006 691.038 151.841 L 692.147 157.738 Z M 760.786 147.651 L 761.355 153.624 C 787.076 151.176 810.98 151.144 857.677 157.714 L 858.513 151.773 L 859.349 145.831 C 811.91 139.156 787.047 139.124 760.218 141.678 L 760.786 147.651 Z M 858.513 151.773 L 857.677 157.714 C 869.777 159.417 909.913 161.822 963.937 164.705 C 1018.12 167.597 1086.856 170.998 1156.335 174.659 C 1225.865 178.322 1296.243 182.252 1353.937 186.216 C 1411.832 190.193 1456.448 194.175 1474.813 197.881 L 1476 192 L 1477.187 186.119 C 1457.877 182.221 1412.352 178.2 1354.759 174.244 C 1296.964 170.274 1226.506 166.339 1156.966 162.675 C 1087.376 159.008 1018.811 155.617 964.576 152.722 C 910.182 149.819 870.784 147.44 859.349 145.831 L 858.513 151.773 Z" fill="currentColor" fill-rule="nonzero"></path>
</svg>