<svg xmlns="http://www.w3.org/2000/svg" width="1488.038" height="192" viewBox="0 0 1488.038 192" fill="none">
  <path d="M 11.943 186.001 C 8.63 186.053 5.986 188.781 6.039 192.095 C 6.091 195.408 8.82 198.052 12.133 197.999 L 12.038 192 L 11.943 186.001 Z M 2.114 184.935 L 0.099 179.283 L 2.114 184.935 Z M 58.682 157.88 L 62.103 162.809 L 58.682 157.88 Z M 117.297 117.533 L 120.712 122.466 L 120.712 122.466 L 117.297 117.533 Z M 319.342 3.843 L 320.071 9.799 L 319.342 3.843 Z M 388.095 1.311 L 385.287 6.613 L 385.287 6.613 L 388.095 1.311 Z M 389.93 9.287 L 385.772 4.961 L 385.772 4.961 L 389.93 9.287 Z M 363.694 38.614 L 358.65 35.366 L 363.694 38.614 Z M 346.722 89.056 L 340.834 87.906 L 346.722 89.056 Z M 352.573 124.45 L 347.188 127.096 L 347.188 127.096 L 352.573 124.45 Z M 372.825 149.681 L 376.19 144.714 L 376.19 144.714 L 372.825 149.681 Z M 498.58 180.616 L 498.944 174.627 L 498.58 180.616 Z M 563.607 181.97 L 563.651 187.97 L 563.607 181.97 Z M 633.385 169.483 L 631.425 163.812 L 633.385 169.483 Z M 704.185 157.738 L 705.293 163.634 L 704.185 157.738 Z M 1486.851 197.881 C 1490.099 198.537 1493.264 196.435 1493.919 193.187 C 1494.575 189.939 1492.473 186.774 1489.225 186.119 L 1488.038 192 L 1486.851 197.881 Z M 12.038 192 L 12.133 197.999 C 16.644 197.928 19.766 197.84 21.748 197.725 C 22.685 197.67 23.601 197.598 24.333 197.474 C 24.525 197.442 25.456 197.299 26.409 196.82 C 26.671 196.689 28.545 195.793 29.4 193.506 C 30.615 190.257 28.751 187.816 27.902 187.007 C 27.11 186.251 26.3 185.895 26.061 185.79 C 25.706 185.636 25.393 185.535 25.193 185.476 C 24.787 185.356 24.387 185.271 24.085 185.212 C 23.456 185.089 22.696 184.975 21.923 184.868 C 20.369 184.655 18.274 184.408 16.158 184.146 C 11.673 183.59 7.09 182.96 4.492 182.249 C 4.202 182.169 3.977 182.099 3.81 182.041 C 3.636 181.981 3.569 181.949 3.58 181.954 C 3.589 181.959 3.636 181.981 3.712 182.026 C 3.785 182.07 3.911 182.149 4.069 182.272 C 4.326 182.472 4.994 183.038 5.481 184.072 C 6.055 185.29 6.191 186.782 5.697 188.204 C 5.272 189.427 4.546 190.121 4.246 190.378 C 3.712 190.835 3.429 190.836 4.128 190.587 L 2.114 184.935 L 0.099 179.283 C -0.929 179.65 -2.363 180.239 -3.557 181.261 C -4.186 181.8 -5.119 182.77 -5.638 184.263 C -6.226 185.955 -6.07 187.71 -5.375 189.186 C -4.766 190.478 -3.875 191.295 -3.302 191.741 C -2.693 192.215 -2.081 192.548 -1.6 192.779 C -0.643 193.236 0.401 193.57 1.324 193.823 C 4.927 194.809 10.451 195.531 14.683 196.055 C 16.925 196.332 18.84 196.557 20.287 196.756 C 21.015 196.857 21.502 196.934 21.786 196.989 C 21.94 197.02 21.913 197.02 21.785 196.982 C 21.725 196.964 21.527 196.905 21.263 196.79 C 21.115 196.725 20.371 196.407 19.619 195.689 C 18.81 194.918 16.959 192.514 18.161 189.302 C 19.002 187.051 20.835 186.191 21.027 186.095 C 21.533 185.841 21.943 185.733 22.054 185.704 C 22.214 185.662 22.318 185.645 22.33 185.643 C 22.353 185.639 22.27 185.653 22.021 185.676 C 21.788 185.697 21.47 185.721 21.052 185.745 C 19.347 185.844 16.449 185.93 11.943 186.001 L 12.038 192 Z M 2.114 184.935 L 4.128 190.587 C 36.064 179.205 56.274 166.855 62.103 162.809 L 58.682 157.88 L 55.261 152.951 C 50.307 156.39 31.044 168.254 0.099 179.283 L 2.114 184.935 Z M 58.682 157.88 L 62.103 162.809 C 68.104 158.644 83.127 148.488 120.712 122.466 L 117.297 117.533 L 113.882 112.6 C 76.627 138.393 61.062 148.925 55.261 152.951 L 58.682 157.88 Z M 117.297 117.533 L 120.712 122.466 C 133.521 113.599 149.181 101.666 165.167 89.601 C 181.227 77.48 197.66 65.193 212.242 55.419 L 208.901 50.435 L 205.56 45.451 C 190.659 55.44 173.969 67.924 157.938 80.023 C 141.833 92.177 126.433 103.911 113.882 112.6 L 117.297 117.533 Z M 208.901 50.435 L 212.242 55.419 C 241.361 35.898 261.668 26.42 277.384 20.323 L 275.214 14.729 L 273.043 9.135 C 256.497 15.555 235.406 25.443 205.56 45.451 L 208.901 50.435 Z M 275.214 14.729 L 277.384 20.323 C 293.002 14.264 303.448 11.833 320.071 9.799 L 319.342 3.843 L 318.613 -2.112 C 301.115 0.029 289.688 2.678 273.043 9.135 L 275.214 14.729 Z M 319.342 3.843 L 320.071 9.799 C 339.819 7.382 355.936 6.307 367.48 6.058 C 373.262 5.933 377.828 6.018 381.095 6.232 C 382.735 6.34 383.963 6.475 384.812 6.614 C 385.873 6.786 385.793 6.881 385.287 6.613 L 388.095 1.311 L 390.904 -3.991 C 389.529 -4.719 387.894 -5.042 386.742 -5.23 C 385.379 -5.452 383.738 -5.62 381.881 -5.742 C 378.153 -5.987 373.216 -6.068 367.222 -5.939 C 355.215 -5.68 338.693 -4.57 318.613 -2.112 L 319.342 3.843 Z M 388.095 1.311 L 385.287 6.613 C 385.573 6.764 385.793 6.896 385.959 7.007 C 386.127 7.119 386.205 7.187 386.223 7.204 C 386.272 7.25 385.903 6.926 385.721 6.197 L 391.544 4.748 L 397.366 3.299 C 396.317 -0.916 392.664 -3.059 390.904 -3.991 L 388.095 1.311 Z M 391.544 4.748 L 385.721 6.197 C 385.625 5.811 385.63 5.513 385.645 5.346 C 385.661 5.178 385.693 5.083 385.704 5.055 C 385.71 5.038 385.715 5.028 385.716 5.025 C 385.718 5.022 385.719 5.021 385.719 5.02 C 385.72 5.019 385.722 5.015 385.729 5.007 C 385.736 4.999 385.749 4.983 385.772 4.961 L 389.93 9.287 L 394.087 13.613 C 396.367 11.422 398.398 7.447 397.366 3.299 L 391.544 4.748 Z M 389.93 9.287 L 385.772 4.961 C 384.64 6.048 383.4 7.042 381.634 8.492 C 379.924 9.896 377.918 11.575 375.633 13.792 C 371.039 18.25 365.544 24.66 358.65 35.366 L 363.694 38.614 L 368.739 41.863 C 375.225 31.791 380.157 26.123 383.99 22.404 C 385.919 20.533 387.626 19.1 389.249 17.766 C 390.816 16.479 392.528 15.111 394.087 13.613 L 389.93 9.287 Z M 363.694 38.614 L 358.65 35.366 C 354.765 41.398 351.211 50.098 348.224 59.267 C 345.203 68.537 342.633 78.697 340.834 87.906 L 346.722 89.056 L 352.611 90.206 C 354.325 81.435 356.777 71.751 359.633 62.984 C 362.522 54.116 365.698 46.585 368.739 41.863 L 363.694 38.614 Z M 346.722 89.056 L 340.834 87.906 C 337.918 102.83 342.112 116.769 347.188 127.096 L 352.573 124.45 L 357.958 121.803 C 353.518 112.77 350.386 101.599 352.611 90.206 L 346.722 89.056 Z M 352.573 124.45 L 347.188 127.096 C 355.32 143.64 365.583 152.022 369.46 154.649 L 372.825 149.681 L 376.19 144.714 C 373.761 143.068 365.031 136.194 357.958 121.803 L 352.573 124.45 Z M 372.825 149.681 L 369.46 154.649 C 370.151 155.117 370.898 155.421 371.192 155.54 C 371.635 155.721 372.142 155.906 372.675 156.092 C 373.75 156.465 375.15 156.911 376.798 157.414 C 380.107 158.423 384.609 159.715 389.917 161.186 C 400.545 164.132 414.534 167.832 428.952 171.486 C 443.368 175.139 458.251 178.756 470.661 181.531 C 482.849 184.256 493.209 186.301 498.216 186.605 L 498.58 180.616 L 498.944 174.627 C 495.095 174.393 485.762 172.61 473.28 169.82 C 461.019 167.079 446.254 163.491 431.9 159.854 C 417.549 156.217 403.648 152.54 393.123 149.622 C 387.855 148.162 383.465 146.901 380.298 145.936 C 378.708 145.451 377.475 145.055 376.611 144.755 C 376.175 144.604 375.887 144.496 375.72 144.428 C 375.404 144.299 375.727 144.4 376.19 144.714 L 372.825 149.681 Z M 498.58 180.616 L 498.216 186.605 C 514.496 187.595 545.207 188.105 563.651 187.97 L 563.607 181.97 L 563.563 175.97 C 545.264 176.105 514.85 175.594 498.944 174.627 L 498.58 180.616 Z M 563.607 181.97 L 563.651 187.97 C 597.471 187.722 619.69 180.563 635.344 175.154 L 633.385 169.483 L 631.425 163.812 C 616.324 169.03 595.514 175.736 563.563 175.97 L 563.607 181.97 Z M 633.385 169.483 L 635.344 175.154 C 648.171 170.722 660.953 168.677 672.906 167.337 C 684.52 166.035 696.188 165.347 705.293 163.634 L 704.185 157.738 L 703.076 151.841 C 694.518 153.45 684.221 153.993 671.569 155.412 C 659.255 156.792 645.469 158.959 631.425 163.812 L 633.385 169.483 Z M 704.185 157.738 L 705.293 163.634 C 720.248 160.822 747.388 156.099 773.393 153.624 L 772.824 147.651 L 772.256 141.678 C 745.71 144.204 718.152 149.006 703.076 151.841 L 704.185 157.738 Z M 772.824 147.651 L 773.393 153.624 C 799.113 151.176 823.018 151.144 869.715 157.714 L 870.551 151.773 L 871.387 145.831 C 823.948 139.156 799.085 139.124 772.256 141.678 L 772.824 147.651 Z M 870.551 151.773 L 869.715 157.714 C 881.815 159.417 921.951 161.822 975.975 164.705 C 1030.158 167.597 1098.894 170.998 1168.373 174.659 C 1237.903 178.322 1308.281 182.252 1365.975 186.216 C 1423.87 190.193 1468.486 194.175 1486.851 197.881 L 1488.038 192 L 1489.225 186.119 C 1469.914 182.221 1424.39 178.2 1366.797 174.244 C 1309.002 170.274 1238.544 166.339 1169.004 162.675 C 1099.414 159.008 1030.849 155.617 976.614 152.722 C 922.22 149.819 882.822 147.44 871.387 145.831 L 870.551 151.773 Z" fill="currentColor" fill-rule="nonzero"></path>
</svg>