<svg width="639" height="641" viewBox="0 0 639 641" fill="none" xmlns="http://www.w3.org/2000/svg">
<path d="M111.394 115.933C157.264 119.378 279.454 -32.1457 313.175 6.23438C349.02 47.0334 354.764 157.941 355.075 209.442C344.242 220.161 311.168 243.951 265.536 253.36C208.495 265.122 263.925 147.944 277.18 98.2969C290.434 48.6501 224.977 92.3705 154.531 155.773C84.0859 219.176 7.17158 141.7 0.482422 90.5557C-6.20663 39.4112 58.0345 111.925 111.394 115.933Z" fill="#F6F6F6"/>
<path d="M232.921 273.064C247.88 275.975 286.169 289.895 319.654 322.293C361.51 362.79 233.472 383.02 184.987 400.043C136.503 417.066 209.505 446.51 301.578 468.984C393.65 491.459 372.979 598.656 334.495 632.999C296.011 667.342 319.723 573.412 292.969 527.071C269.969 487.234 75.9403 471.661 88.6484 422.178C102.158 369.576 190.548 302.339 232.921 273.064Z" fill="#F6F6F6"/>
<path d="M498.973 208.499C472.4 117.524 575.57 81.8276 624.555 97.9844C673.539 114.141 580.336 140.571 553.581 186.911C530.581 226.748 614.109 402.567 564.902 416.305C512.594 430.906 410.169 387.976 363.63 365.918C358.671 351.508 351.581 311.388 362.896 266.19C377.039 209.693 458.578 310.463 497.562 343.94C536.547 377.418 525.545 299.474 498.973 208.499Z" fill="#F6F6F6"/>
</svg>
